<?xml version="1.0" standalone="no"?>
<!DOCTYPE svg PUBLIC "-//W3C//DTD SVG 20010904//EN"
 "http://www.w3.org/TR/2001/REC-SVG-20010904/DTD/svg10.dtd">
<svg version="1.0" xmlns="http://www.w3.org/2000/svg"
 width="500.000000pt" height="500.000000pt" viewBox="0 0 500.000000 500.000000"
 preserveAspectRatio="xMidYMid meet">
<metadata>
Created by potrace 1.14, written by Peter Selinger 2001-2017
</metadata>
<g transform="translate(0.000000,500.000000) scale(0.100000,-0.100000)"
fill="#000000" stroke="none">
<path d="M0 2500 l0 -2500 2500 0 2500 0 0 2500 0 2500 -2500 0 -2500 0 0
-2500z m4093 895 c145 -25 302 -120 395 -238 50 -63 112 -165 112 -185 0 -9
-280 -176 -285 -170 -2 2 -15 27 -29 56 -37 73 -98 136 -160 167 -196 96 -381
-22 -458 -290 -19 -68 -22 -102 -22 -230 1 -132 4 -161 28 -240 34 -111 65
-167 128 -227 58 -56 118 -78 207 -78 117 0 214 67 281 191 21 40 35 57 43 52
7 -5 72 -43 145 -87 l133 -78 -27 -47 c-77 -132 -177 -241 -277 -300 -190
-112 -424 -121 -618 -24 -135 67 -265 216 -329 377 -59 148 -72 215 -77 411
-4 157 -2 193 17 285 74 360 306 618 594 660 78 11 114 11 199 -5z m-2543
-210 l0 -165 -360 0 -361 0 3 -152 3 -153 333 -3 332 -2 0 -160 0 -160 -335 0
-335 0 2 -202 3 -203 393 -3 392 -2 0 -165 0 -165 -575 0 -575 0 0 850 0 850
540 0 540 0 0 -165z m1013 145 c291 -59 464 -230 532 -525 41 -177 37 -445
-10 -629 -64 -252 -231 -435 -460 -502 -51 -15 -116 -18 -432 -21 l-373 -5 0
851 0 851 321 0 c284 0 333 -2 422 -20z"/>
<path d="M2180 2496 l0 -496 113 0 c289 1 411 91 454 338 18 102 13 307 -10
388 -33 118 -92 190 -194 237 -42 19 -69 22 -205 25 l-158 4 0 -496z"/>
</g>
</svg>
